<svg xmlns="http://www.w3.org/2000/svg" width="20" height="19.923" viewBox="0 0 20 19.923">
  <path id="msg" d="M18.125,7.541H15V1.985A1.877,1.877,0,0,0,13.125.11H1.875A1.877,1.877,0,0,0,0,1.985V9.416a1.877,1.877,0,0,0,1.875,1.875H2.43v3.055a.63.63,0,0,0,1.094.413l3.058-3.469H7.5v3.75a1.877,1.877,0,0,0,1.875,1.875h4.45l2.582,2.914a.631.631,0,0,0,1.093-.414v-2.5h.625A1.877,1.877,0,0,0,20,15.041V9.416A1.877,1.877,0,0,0,18.125,7.541ZM6.3,10.041a.653.653,0,0,0-.468.212L3.68,12.693s0-2.023,0-2.026a.625.625,0,0,0-.625-.625H1.875a.625.625,0,0,1-.625-.625V1.985a.625.625,0,0,1,.625-.625h11.25a.625.625,0,0,1,.625.625V7.541H9.375A1.877,1.877,0,0,0,7.5,9.416v.625Zm12.45,5a.625.625,0,0,1-.625.625h-1.25a.625.625,0,0,0-.625.625v1.477l-1.676-1.891a.641.641,0,0,0-.448-.207l-4.751,0a.625.625,0,0,1-.625-.625V9.416a.625.625,0,0,1,.625-.625h8.75a.625.625,0,0,1,.625.625Z" transform="translate(0 -0.11)" fill="#d9001b"/>
</svg>
