<svg xmlns="http://www.w3.org/2000/svg" width="20" height="19.963" viewBox="0 0 20 19.963">
  <g id="phone" transform="translate(-0.934 -1)">
    <path id="Path_29096" data-name="Path 29096" d="M15.912,14.257a2,2,0,0,0-2.827,0l-.965.965a17.388,17.388,0,0,1-3-2.408,17.707,17.707,0,0,1-2.408-3l.965-.965a2,2,0,0,0,0-2.827L5.794,4.146a1.949,1.949,0,0,0-1.4-.585h0a2,2,0,0,0-1.417.585l-.9.9A4.237,4.237,0,0,0,.978,8.537c.213,2.494,1.849,5.495,4.37,8.022s5.554,4.157,8.049,4.4a5.235,5.235,0,0,0,.559,0,4.038,4.038,0,0,0,2.934-1.091l.9-.9a2,2,0,0,0,.585-1.417,1.949,1.949,0,0,0-.585-1.4Zm.938,3.765-.9.9a3.04,3.04,0,0,1-2.435.665c-2.162-.186-4.916-1.716-7.191-3.991s-3.8-5.009-4.011-7.171a3.013,3.013,0,0,1,.665-2.435l.938-.9a.665.665,0,0,1,.472-.193h0a.665.665,0,0,1,.472.193l1.883,1.9a.665.665,0,0,1,0,.938l-1.33,1.33a.665.665,0,0,0-.106.8,18.286,18.286,0,0,0,2.88,3.712,18.286,18.286,0,0,0,3.712,2.88.665.665,0,0,0,.8-.106l1.33-1.33a.665.665,0,0,1,.938,0L16.85,17.1h0a.65.65,0,0,1,0,.925Zm1.157-14.1A9.925,9.925,0,0,0,10.956,1a.665.665,0,0,0,0,1.33A8.648,8.648,0,0,1,19.6,11.051a.665.665,0,0,0,.665.665h0a.665.665,0,0,0,.665-.665A9.918,9.918,0,0,0,18.007,3.92Z" transform="translate(0)" fill="#d9001b"/>
    <path id="Path_29097" data-name="Path 29097" d="M18.861,9.625a3.65,3.65,0,0,1,1.077,2.622.608.608,0,0,0,.608.608h0a.608.608,0,0,0,.608-.608A4.866,4.866,0,0,0,16.288,7.32a.608.608,0,0,0,0,1.217,3.65,3.65,0,0,1,2.573,1.089Z" transform="translate(-4.046 -3.037)" fill="#d9001b"/>
  </g>
</svg>
