<svg xmlns="http://www.w3.org/2000/svg" width="33.991" height="33.928" viewBox="0 0 33.991 33.928">
  <g id="phone" transform="translate(-0.934 -1)">
    <path id="Path_29096" data-name="Path 29096" d="M26.389,23.531a3.392,3.392,0,0,0-4.8,0l-1.639,1.639a29.552,29.552,0,0,1-5.1-4.093,30.094,30.094,0,0,1-4.093-5.1l1.639-1.639a3.392,3.392,0,0,0,0-4.8l-3.2-3.188a3.312,3.312,0,0,0-2.385-.995h0A3.392,3.392,0,0,0,4.4,6.347L2.863,7.874a7.2,7.2,0,0,0-1.854,5.935c.362,4.239,3.143,9.338,7.428,13.634s9.44,7.066,13.679,7.473a8.9,8.9,0,0,0,.95,0,6.862,6.862,0,0,0,4.986-1.854l1.526-1.538a3.392,3.392,0,0,0,.995-2.408,3.312,3.312,0,0,0-.995-2.385Zm1.594,6.4-1.538,1.526a5.167,5.167,0,0,1-4.138,1.131c-3.674-.317-8.355-2.917-12.221-6.783S3.62,17.291,3.27,13.617A5.121,5.121,0,0,1,4.4,9.479L5.994,7.941a1.131,1.131,0,0,1,.8-.328h0a1.131,1.131,0,0,1,.8.328l3.2,3.233a1.131,1.131,0,0,1,0,1.594L8.538,15.03A1.131,1.131,0,0,0,8.357,16.4a31.078,31.078,0,0,0,4.9,6.308,31.078,31.078,0,0,0,6.308,4.9,1.131,1.131,0,0,0,1.368-.181l2.261-2.261a1.131,1.131,0,0,1,1.594,0l3.2,3.2h0a1.105,1.105,0,0,1,0,1.571ZM29.95,5.963A16.867,16.867,0,0,0,17.966,1a1.131,1.131,0,0,0,0,2.261,14.7,14.7,0,0,1,14.7,14.821,1.131,1.131,0,0,0,1.131,1.131h0a1.131,1.131,0,0,0,1.131-1.131A16.856,16.856,0,0,0,29.95,5.963Z" transform="translate(0 0)" fill="#d9001b"/>
    <path id="Path_29097" data-name="Path 29097" d="M21.087,11.238a6.2,6.2,0,0,1,1.83,4.456,1.034,1.034,0,0,0,1.034,1.034h0a1.034,1.034,0,0,0,1.034-1.034,8.27,8.27,0,0,0-8.27-8.374,1.034,1.034,0,0,0,0,2.068,6.2,6.2,0,0,1,4.373,1.85Z" transform="translate(3.438 -0.74)" fill="#d9001b"/>
  </g>
</svg>
