<svg xmlns="http://www.w3.org/2000/svg" xmlns:xlink="http://www.w3.org/1999/xlink" width="1366" height="237" viewBox="0 0 1366 237">
    <defs>
      <clipPath id="clip-path">
        <rect id="Rectangle_17" data-name="Rectangle 17" width="1366" height="237" fill="none"/>
      </clipPath>
      <linearGradient id="linear-gradient" x1="8.601" y1="-47.534" x2="8.601" y2="-46.576" gradientUnits="objectBoundingBox">
        <stop offset="0" stop-color="#c9c9c9"/>
        <stop offset="0.041" stop-color="#ccc"/>
        <stop offset="0.419" stop-color="#e8e8e8"/>
        <stop offset="0.751" stop-color="#f9f9f9"/>
        <stop offset="1" stop-color="#fff"/>
      </linearGradient>
      <linearGradient id="linear-gradient-2" x1="0.5" y1="1.028" x2="0.5" y2="-0.588" gradientUnits="objectBoundingBox">
        <stop offset="0" stop-color="#ff3800"/>
        <stop offset="0.296" stop-color="#e72d00"/>
        <stop offset="0.917" stop-color="#a91200"/>
        <stop offset="1" stop-color="#a10f00"/>
      </linearGradient>
      <linearGradient id="linear-gradient-3" x1="5.456" y1="-26.741" x2="5.456" y2="-25.774" gradientUnits="objectBoundingBox">
        <stop offset="0" stop-color="#5c3327"/>
        <stop offset="0.279" stop-color="#4b2821"/>
        <stop offset="1" stop-color="#000f1f"/>
      </linearGradient>
      <linearGradient id="linear-gradient-4" x1="0.5" y1="0.088" x2="0.5" y2="1.571" xlink:href="#linear-gradient-2"/>
      <linearGradient id="linear-gradient-5" x1="0.5" y1="0.113" x2="0.5" y2="1.546" xlink:href="#linear-gradient-2"/>
      <linearGradient id="linear-gradient-6" x1="9.622" y1="-56.953" x2="9.622" y2="-57.743" xlink:href="#linear-gradient"/>
      <linearGradient id="linear-gradient-7" x1="32.279" y1="-7.719" x2="32.279" y2="-5.82" xlink:href="#linear-gradient"/>
      <linearGradient id="linear-gradient-8" x1="1231.947" y1="-8.04" x2="1231.947" y2="-6.141" xlink:href="#linear-gradient"/>
      <linearGradient id="linear-gradient-9" x1="33.497" y1="-7.684" x2="33.497" y2="-6.744" xlink:href="#linear-gradient"/>
      <linearGradient id="linear-gradient-10" x1="-7.262" y1="-6.472" x2="-7.262" y2="-5.263" xlink:href="#linear-gradient"/>
      <linearGradient id="linear-gradient-11" x1="22.433" y1="7.654" x2="22.433" y2="8.613" xlink:href="#linear-gradient"/>
      <linearGradient id="linear-gradient-12" x1="-51.897" y1="-227.315" x2="-51.897" y2="-228.931" xlink:href="#linear-gradient-2"/>
      <linearGradient id="linear-gradient-13" x1="12.393" y1="4.246" x2="12.393" y2="5.213" gradientUnits="objectBoundingBox">
        <stop offset="0.279" stop-color="#0c1e30"/>
        <stop offset="1" stop-color="#000f1f"/>
      </linearGradient>
      <linearGradient id="linear-gradient-14" x1="-35.034" y1="-152.562" x2="-35.034" y2="-151.079" xlink:href="#linear-gradient-2"/>
      <linearGradient id="linear-gradient-15" x1="-33.167" y1="-157.15" x2="-33.167" y2="-155.717" xlink:href="#linear-gradient-2"/>
      <linearGradient id="linear-gradient-16" x1="28.515" y1="10.386" x2="28.515" y2="9.596" xlink:href="#linear-gradient"/>
      <linearGradient id="linear-gradient-17" x1="-96.204" y1="-46.988" x2="-96.204" y2="-45.089" xlink:href="#linear-gradient"/>
      <linearGradient id="linear-gradient-18" x1="-610.77" y1="-46.821" x2="-610.77" y2="-44.922" xlink:href="#linear-gradient"/>
      <linearGradient id="linear-gradient-19" x1="-100.76" y1="-17.693" x2="-100.76" y2="-16.752" xlink:href="#linear-gradient"/>
      <linearGradient id="linear-gradient-20" x1="-38.513" y1="-22.732" x2="-38.513" y2="-21.523" xlink:href="#linear-gradient"/>
    </defs>
    <g id="Group_11" data-name="Group 11" clip-path="url(#clip-path)">
      <g id="Group_3" data-name="Group 3" transform="translate(-164.572 -70.987)">
        <path id="Path_1" data-name="Path 1" d="M161.522,93.673H209.8L86.574,374.218H38.295Z" transform="translate(66.363 290.18)" fill="url(#linear-gradient)" style="mix-blend-mode: multiply;isolation: isolate;"/>
        <path id="Path_2" data-name="Path 2" d="M102.517,78.717h17.5L75.347,180.42h-17.5Z" transform="translate(111.148 241.58)" fill="url(#linear-gradient-2)"/>
        <path id="Path_3" data-name="Path 3" d="M202.871,3.343,303.7,34.191,107.319,481.277,6.491,450.43Z" transform="translate(-6.491 -3.343)" fill="url(#linear-gradient-3)"/>
        <path id="Path_4" data-name="Path 4" d="M121.963,128.689h25.648L82.147,277.728H56.5Z" transform="translate(108.064 403.96)" fill="url(#linear-gradient-4)"/>
        <path id="Path_5" data-name="Path 5" d="M147.809,47.8h25.648l-65.464,149.04H82.344Z" transform="translate(167.272 141.11)" fill="url(#linear-gradient-5)"/>
        <path id="Path_6" data-name="Path 6" d="M165.415,19.4h37.8L106.736,239.048h-37.8Z" transform="translate(136.561 48.845)" fill="url(#linear-gradient-6)" style="mix-blend-mode: multiply;isolation: isolate;opacity:0.15"/>
      </g>
      <!-- <g id="Group_5" data-name="Group 5" transform="translate(-99.758 -136.354)">
        <path id="Path_18001" data-name="Path 18001" d="M2.754,1.047l60.1,7.093,31.05,298.307-60.1-7.093Z" transform="translate(346.128 19.468) rotate(30.23)" fill="url(#linear-gradient-7)" style="mix-blend-mode: multiply;isolation: isolate"/>
        <path id="Path_18002" data-name="Path 18002" d="M2.7.53,18.412,2.384l31.05,298.307-15.716-1.855Z" transform="translate(500.281 109.557) rotate(30.23)" fill="url(#linear-gradient-8)" style="mix-blend-mode: multiply;isolation: isolate"/>
        <path id="Path_18003" data-name="Path 18003" d="M5.481,1.4l60.1,7.093,62.7,602.4-60.1-7.093Z" transform="translate(245.09 0) rotate(30.231)" fill="url(#linear-gradient-9)" style="mix-blend-mode: multiply;isolation: isolate"/>
        <path id="Path_18004" data-name="Path 18004" d="M4.36,1.962,126.02,16.319l48.755,468.4L53.115,470.358Z" transform="matrix(0.864, 0.503, -0.503, 0.864, 384.829, 13.513)" fill="url(#linear-gradient-10)" style="mix-blend-mode: multiply;isolation: isolate"/>
      </g> -->
      <g id="Group_7" data-name="Group 7" transform="translate(154.924 0.794)">
        <path id="Path_18005" data-name="Path 18005" d="M0,30.077,237.579,5.909l-.2,1.758L-.2,31.835Z" transform="translate(-26.234 205.598) rotate(-60.719)" fill="#fc3700"/>
      </g>
      <g id="Group_43" data-name="Group 43" transform="translate(859.025 -240.023)">
        <g id="Group_4" data-name="Group 4" transform="translate(359.663 199.753)">
          <path id="Path_7" data-name="Path 7" d="M241.033,357.311H208.716L291.2,169.518H323.52Z" transform="translate(-165.497 -157.944)" fill="url(#linear-gradient-11)" style="mix-blend-mode: multiply;isolation: isolate;opacity:0.15"/>
          <path id="Path_8" data-name="Path 8" d="M229.584,275.779H217.869l29.9-68.078h11.716Z" transform="translate(-144.529 -33.869)" fill="url(#linear-gradient-12)"/>
          <path id="Path_9" data-name="Path 9" d="M284.7,535.307l-80.266-37.144L335.889,198.89l80.266,37.143Z" transform="translate(-175.302 -62.5)" fill="url(#linear-gradient-13)"/>
          <path id="Path_10" data-name="Path 10" d="M230.052,266.56H212.884L256.7,166.795h17.169Z" transform="translate(-155.95 -166.795)" fill="url(#linear-gradient-14)"/>
          <path id="Path_11" data-name="Path 11" d="M212.751,320.706H195.582L239.4,220.942h17.168Z" transform="translate(-195.582 9.154)" fill="url(#linear-gradient-15)"/>
          <!-- <path id="Path_12" data-name="Path 12" d="M221.078,375.853h-25.3l64.58-147.027h25.3Z" transform="translate(-195.137 34.775)" fill="url(#linear-gradient-16)" style="mix-blend-mode: multiply;isolation: isolate;"/> -->
        </g>
        <!-- <g id="Group_6" data-name="Group 6" transform="translate(0 158.03)">
          <path id="Path_18006" data-name="Path 18006" d="M2.754,1.047l60.1,7.093,31.05,298.306-60.1-7.093Z" transform="translate(168.862 576.906) rotate(-149.77)" fill="url(#linear-gradient-17)" style="mix-blend-mode: multiply;isolation: isolate"/>
          <path id="Path_18007" data-name="Path 18007" d="M2.7.53,18.412,2.384,49.463,300.69l-15.716-1.855Z" transform="translate(14.707 486.816) rotate(-149.769)" fill="url(#linear-gradient-18)" style="mix-blend-mode: multiply;isolation: isolate"/>
          <path id="Path_18008" data-name="Path 18008" d="M5.481,1.4l60.1,7.093,62.7,602.4-60.1-7.093Z" transform="translate(269.9 596.374) rotate(-149.77)" fill="url(#linear-gradient-19)" style="mix-blend-mode: multiply;isolation: isolate"/>
          <path id="Path_18009" data-name="Path 18009" d="M4.36,1.962,126.02,16.319l48.755,468.4L53.115,470.359Z" transform="translate(130.162 582.861) rotate(-149.77)" fill="url(#linear-gradient-20)" style="mix-blend-mode: multiply;isolation: isolate"/>
        </g> -->
        <g id="Group_8" data-name="Group 8" transform="translate(277.763 447.611)">
          <path id="Path_18010" data-name="Path 18010" d="M0,30.071,237.589,5.907l-.2,1.757L-.2,31.829Z" transform="matrix(0.489, -0.872, 0.872, 0.489, -26.232, 205.628)" fill="#fc3700"/>
        </g>
        <g id="Group_9" data-name="Group 9" transform="translate(429.87 0)">
          <path id="Path_18011" data-name="Path 18011" d="M0,30.072,237.591,5.908l-.2,1.758L-.2,31.829Z" transform="matrix(0.489, -0.872, 0.872, 0.489, -26.232, 205.629)" fill="#fc3700"/>
        </g>
      </g>
      <g id="Group_10" data-name="Group 10" transform="translate(-52.753 403.069)">
        <path id="Path_18012" data-name="Path 18012" d="M0,30.074,237.587,5.908l-.2,1.758L-.2,31.832Z" transform="matrix(0.489, -0.872, 0.872, 0.489, -26.233, 205.617)" fill="#fc3700"/>
      </g>
    </g>
  </svg>
  