<svg id="Group_27137" data-name="Group 27137" xmlns="http://www.w3.org/2000/svg" width="18" height="18" viewBox="0 0 18 18">
    <path id="Path_29090" data-name="Path 29090" d="M0,0H18V18H0Z" fill="none"/>
    <path id="Path_29091" data-name="Path 29091" d="M10.339,9A8.993,8.993,0,0,0,2,15.024a8.993,8.993,0,0,0,8.339,6.024,8.989,8.989,0,0,0,8.339-6.024A8.989,8.989,0,0,0,10.339,9Zm0,10.04a3.91,3.91,0,0,1-3.79-4.016,3.91,3.91,0,0,1,3.79-4.016,3.91,3.91,0,0,1,3.79,4.016A3.91,3.91,0,0,1,10.339,19.04Zm0-6.426a2.414,2.414,0,0,0,0,4.819,2.414,2.414,0,0,0,0-4.819Z" transform="translate(-1.339 -6.024)"/>
  </svg>
  