<svg id="Layer_1" data-name="Layer 1" xmlns="http://www.w3.org/2000/svg" width="50.334" height="36.268" viewBox="0 0 50.334 36.268">
    <path id="Path_21" data-name="Path 21" d="M357.922,68.327l25.193-11.285,1.732.788-.21.21c-1.889,2.572-2.782,6.928-3.254,6.928-.735,0-1.47-2.887-2.625-4.461-.262-.577-.524-.577-.63.052-.262,1.47.052,4.986-.472,5.406-.787.263-1.155-1.312-1.732-1.994-.525-.577-.682-.21-.682.262.052,1.26.157,2.52.21,3.78-.787-.788-1.259-1.05-1.469-.526,1,4.252-3.149,7.926,0,9.92a3.3,3.3,0,0,1,1.889.84,8.01,8.01,0,0,1,3.884.944,1.816,1.816,0,0,0-1.26,1.784,8.153,8.153,0,0,0-3.149.211c.577.053,1.05.158,1.155.42a3.8,3.8,0,0,0,.84,1.941c-.263,1.89-.263,3.2.1,3.884v.053H357.922Z" transform="translate(-357.922 -51.217)" fill="#1a1818"/>
    <path id="Path_22" data-name="Path 22" d="M490.29,151.947a1.184,1.184,0,1,1-1.26,1.207A1.233,1.233,0,0,1,490.29,151.947Z" transform="translate(-463.942 -127.961)" fill="#1a1818"/>
    <path id="Path_23" data-name="Path 23" d="M498.88,153.594a.485.485,0,0,1,.525.472.5.5,0,0,1-.525.525.526.526,0,0,1-.525-.525A.518.518,0,0,1,498.88,153.594Z" transform="translate(-471.482 -129.293)" fill="#fff"/>
    <path id="Path_24" data-name="Path 24" d="M430.471,164.012a5.654,5.654,0,0,0-1.995,5.092,10.334,10.334,0,0,1,6.771-1.942,2.409,2.409,0,0,1,.577-1.155,22.518,22.518,0,0,0-6.246,1.785,14.511,14.511,0,0,1,6.56-2.153,12.2,12.2,0,0,0-3.359-.577l-.368-.263-.21-.157-.21-.157-.262-.105-.157-.105-.21-.053-.157-.052h-.315Z" transform="translate(-414.935 -137.717)" fill="#ffb31c"/>
    <path id="Path_25" data-name="Path 25" d="M357.922,47.981,383.115,36.75l25.14,11.231v.84l-25.14-11.232L357.922,48.822Z" transform="translate(-357.922 -34.808)" fill="#d9001b"/>
    <path id="Path_26" data-name="Path 26" d="M357.922,37.832,383.115,26.6l25.14,11.231v.84L383.115,27.44,357.922,38.673Z" transform="translate(-357.922 -26.601)" fill="#1a1818"/>
    <path id="Path_27" data-name="Path 27" d="M478.165,63.626l3.15,1.418c-1.364,1.732-2.415,3.936-2.886,3.779C477.955,68.77,478.217,65.673,478.165,63.626Zm4.672,2.1,2.992,1.312c-.105.105-.262.157-.473.315-1.049.735-2.571,2.2-3.15,2.152C481.838,69.505,482.416,67.458,482.836,65.726Zm3.936,1.732,13.751,6.193V92.809H477.85c-2.257-4.251.525-5.092,1.469-8.293,2.782-5.354-2.519-6.823-6.508-3.412a5.068,5.068,0,0,1-.787-2.729,4.237,4.237,0,0,0,.63.945,10.355,10.355,0,0,1,.105-2.2c.105.263.158.63.315,1,.315-.892.473-1.628.735-2.467a3.392,3.392,0,0,0,.315,1.575,3.308,3.308,0,0,1,.525-1.575,7,7,0,0,0,.052,1.469,4.258,4.258,0,0,1,1.627-2.1,3.243,3.243,0,0,0-.735,1.995,3.076,3.076,0,0,1,2.047-1.891,2.765,2.765,0,0,0-1.365,1.838,5.645,5.645,0,0,1,2.362-1.575c-.892.84-1.575,1.207-1.785,1.942a4.35,4.35,0,0,1,2.2-1.207c-.367.263-.945.525-1.155.893a7.329,7.329,0,0,1,2.047-.84c-.21.21-.42.314-.631.524a2.524,2.524,0,0,1,1.47-.262c-.577.158-1.049.368-1.522.525a5.663,5.663,0,0,1,1.889,0c-.21.1-.419.21-.682.315,1.1.42,2.2.1,2.257-.735,1.784.367,4.776-1.785,3.674-3.411-.892-.578-.944-1.1-.472-1.68a4.13,4.13,0,0,0,.945-3.726C486.825,67.615,486.772,67.563,486.772,67.458Z" transform="translate(-450.19 -56.541)" fill="#d9001b"/>
    <path id="Path_28" data-name="Path 28" d="M485.787,161.291a1.958,1.958,0,0,0,3.866-.117A2.17,2.17,0,0,1,485.787,161.291Z" transform="translate(-461.319 -135.423)" fill="#1a1818"/>
    <path id="Path_29" data-name="Path 29" d="M447.561,171.229c.036.108-.215.286-.559.4s-.653.123-.689.015.215-.286.559-.4S447.526,171.122,447.561,171.229Z" transform="translate(-429.397 -143.493)" fill="#1a1818"/>
  </svg>
  