<svg id="Logo" xmlns="http://www.w3.org/2000/svg" width="182" height="49" viewBox="0 0 182 49">
  <g id="Group_41" data-name="Group 41">
    <g id="Layer_1" data-name="Layer 1" transform="translate(64.154)">
      <path id="Path_21" data-name="Path 21" d="M357.922,68.327l25.193-11.285,1.732.788-.21.21c-1.889,2.572-2.782,6.928-3.254,6.928-.735,0-1.47-2.887-2.625-4.461-.262-.577-.524-.577-.63.052-.262,1.47.052,4.986-.472,5.406-.787.263-1.155-1.312-1.732-1.994-.525-.577-.682-.21-.682.262.052,1.26.157,2.52.21,3.78-.787-.788-1.259-1.05-1.469-.526,1,4.252-3.149,7.926,0,9.92a3.3,3.3,0,0,1,1.889.84,8.01,8.01,0,0,1,3.884.944,1.816,1.816,0,0,0-1.26,1.784,8.153,8.153,0,0,0-3.149.211c.577.053,1.05.158,1.155.42a3.8,3.8,0,0,0,.84,1.941c-.263,1.89-.263,3.2.1,3.884v.053H357.922Z" transform="translate(-357.922 -51.217)" fill="#1a1818"/>
      <path id="Path_22" data-name="Path 22" d="M490.29,151.947a1.184,1.184,0,1,1-1.26,1.207A1.233,1.233,0,0,1,490.29,151.947Z" transform="translate(-463.942 -127.961)" fill="#1a1818"/>
      <path id="Path_23" data-name="Path 23" d="M498.88,153.594a.485.485,0,0,1,.525.472.5.5,0,0,1-.525.525.526.526,0,0,1-.525-.525A.518.518,0,0,1,498.88,153.594Z" transform="translate(-471.482 -129.293)" fill="#fff"/>
      <path id="Path_24" data-name="Path 24" d="M430.471,164.012a5.654,5.654,0,0,0-1.995,5.092,10.334,10.334,0,0,1,6.771-1.942,2.409,2.409,0,0,1,.577-1.155,22.518,22.518,0,0,0-6.246,1.785,14.511,14.511,0,0,1,6.56-2.153,12.2,12.2,0,0,0-3.359-.577l-.368-.263-.21-.157-.21-.157-.262-.105-.157-.105-.21-.053-.157-.052h-.315Z" transform="translate(-414.935 -137.717)" fill="#ffb31c"/>
      <path id="Path_25" data-name="Path 25" d="M357.922,47.981,383.115,36.75l25.14,11.231v.84l-25.14-11.232L357.922,48.822Z" transform="translate(-357.922 -34.808)" fill="#d9001b"/>
      <path id="Path_26" data-name="Path 26" d="M357.922,37.832,383.115,26.6l25.14,11.231v.84L383.115,27.44,357.922,38.673Z" transform="translate(-357.922 -26.601)" fill="#1a1818"/>
      <path id="Path_27" data-name="Path 27" d="M478.165,63.626l3.15,1.418c-1.364,1.732-2.415,3.936-2.886,3.779C477.955,68.77,478.217,65.673,478.165,63.626Zm4.672,2.1,2.992,1.312c-.105.105-.262.157-.473.315-1.049.735-2.571,2.2-3.15,2.152C481.838,69.505,482.416,67.458,482.836,65.726Zm3.936,1.732,13.751,6.193V92.809H477.85c-2.257-4.251.525-5.092,1.469-8.293,2.782-5.354-2.519-6.823-6.508-3.412a5.068,5.068,0,0,1-.787-2.729,4.237,4.237,0,0,0,.63.945,10.355,10.355,0,0,1,.105-2.2c.105.263.158.63.315,1,.315-.892.473-1.628.735-2.467a3.392,3.392,0,0,0,.315,1.575,3.308,3.308,0,0,1,.525-1.575,7,7,0,0,0,.052,1.469,4.258,4.258,0,0,1,1.627-2.1,3.243,3.243,0,0,0-.735,1.995,3.076,3.076,0,0,1,2.047-1.891,2.765,2.765,0,0,0-1.365,1.838,5.645,5.645,0,0,1,2.362-1.575c-.892.84-1.575,1.207-1.785,1.942a4.35,4.35,0,0,1,2.2-1.207c-.367.263-.945.525-1.155.893a7.329,7.329,0,0,1,2.047-.84c-.21.21-.42.314-.631.524a2.524,2.524,0,0,1,1.47-.262c-.577.158-1.049.368-1.522.525a5.663,5.663,0,0,1,1.889,0c-.21.1-.419.21-.682.315,1.1.42,2.2.1,2.257-.735,1.784.367,4.776-1.785,3.674-3.411-.892-.578-.944-1.1-.472-1.68a4.13,4.13,0,0,0,.945-3.726C486.825,67.615,486.772,67.563,486.772,67.458Z" transform="translate(-450.19 -56.541)" fill="#d9001b"/>
      <path id="Path_28" data-name="Path 28" d="M485.787,161.291a1.958,1.958,0,0,0,3.866-.117A2.17,2.17,0,0,1,485.787,161.291Z" transform="translate(-461.319 -135.423)" fill="#1a1818"/>
      <path id="Path_29" data-name="Path 29" d="M447.561,171.229c.036.108-.215.286-.559.4s-.653.123-.689.015.215-.286.559-.4S447.526,171.122,447.561,171.229Z" transform="translate(-429.397 -143.493)" fill="#1a1818"/>
    </g>
    <rect id="Rectangle_2" data-name="Rectangle 2" width="3.309" height="19.854" transform="translate(178.691 9.138)" fill="#1a1818"/>
    <path id="Path_40" data-name="Path 40" d="M693.956,80.514v6.617h-3.309V80.514h-3.308v6.617h-3.309V80.514H680.72v6.617h-5.515V80.514H657.558V77.2h17.647V73.9H654.249v9.926H671.9v3.308H650.206V80.514h-9.927V93.75H646.9v4.043h-6.617V101.1h9.927V93.75h47.058V80.514ZM646.9,87.131h-3.309V83.822H646.9Z" transform="translate(-522.066 -64.728)" fill="#1a1818"/>
    <g id="Group_42" data-name="Group 42" transform="translate(0 9.107)">
      <path id="Path_33" data-name="Path 33" d="M57.065,87.488v.919c0,5.821,3.983,5.637,8.455,5.637,5.147,0,7.843-.429,7.843-6.127,0-5.148-1.655-5.454-7.9-5.883-3.921-.184-4.411-.306-4.411-2.757,0-2.144.612-2.574,4.472-2.574,2.7,0,3.554.122,3.554,2.267v.674H73V78.97c0-5.269-3.369-5.391-7.475-5.391-4.84,0-8.394.122-8.394,5.7,0,5.882,3.493,5.7,7.843,5.944,3,.184,4.534-.185,4.534,2.7,0,2.328-.491,3-3.983,3-3.615,0-4.6-.182-4.6-2.512v-.919Z" transform="translate(-50.508 -73.579)" fill="#1a1818"/>
      <path id="Path_34" data-name="Path 34" d="M168.831,80.5V79.4c-.306-5.821-3.185-5.821-8.211-5.821-5.943,0-8.456,1.41-8.456,7.9v4.6c.061,5.944,1.347,8.273,8.456,7.965,5.025-.183,8.456,0,8.4-6.065V86.691h-3.86v1.1c0,2.881-1.41,2.943-4.535,2.943-4.044,0-4.535-.737-4.6-4.781V81.482c0-3.982.674-4.594,4.6-4.594,3.371,0,4.289.122,4.289,2.512v1.1Z" transform="translate(-127.41 -73.579)" fill="#1a1818"/>
      <path id="Path_35" data-name="Path 35" d="M258.988,73.579c-6.434,0-8.518,1.1-8.518,7.353v5.453c0,6.618,2.267,7.659,8.518,7.659,6.127,0,8.639-1.225,8.639-7.659V80.932C267.627,74.436,264.809,73.579,258.988,73.579Zm0,3.309c3.43,0,4.84.245,4.718,4.044v5.453c0,3.861-1.163,4.352-4.718,4.352-3.862,0-4.657-.368-4.657-4.352V80.932C254.392,77.745,254.82,76.888,258.988,76.888Z" transform="translate(-206.904 -73.579)" fill="#1a1818"/>
      <path id="Path_36" data-name="Path 36" d="M83.782,198.777v3.308H23.12v-3.308Z" transform="translate(-23.059 -174.819)" fill="#d9001b"/>
      <path id="Path_37" data-name="Path 37" d="M26.616,74.218H22.8v3.566Z" transform="translate(-22.799 -74.095)" fill="#d9001b"/>
      <path id="Path_38" data-name="Path 38" d="M22.8,80.05V94.708H26.66V74.552Z" transform="translate(-22.799 -74.366)" fill="#1a1818"/>
    </g>
    <g id="Group_41-2" data-name="Group 41" transform="translate(27.497 41.768)">
      <path id="Path_1" data-name="Path 1" d="M166.214,250.837h3.615c2.145,0,2.574-1.286,2.574-2.758v-1.654c0-1.96-.858-2.7-2.818-2.7h-3.371Zm1.348-1.164v-4.779h2.023c1.041,0,1.409.305,1.409,1.531v1.654c0,.8-.246,1.594-1.165,1.594Z" transform="translate(-166.214 -243.668)" fill="#1a1818"/>
      <path id="Path_2" data-name="Path 2" d="M204.45,244.894h3.493v-1.165h-4.9v7.108h4.9v-1.164H204.45v-1.838h3.309V246.67H204.45Z" transform="translate(-195.994 -243.668)" fill="#1a1818"/>
      <path id="Path_3" data-name="Path 3" d="M232.821,248.314v.366c0,2.022,1.409,1.962,2.941,1.962,1.838,0,2.818-.123,2.818-2.145,0-1.838-.613-1.96-2.818-2.084-1.41-.061-1.532-.123-1.532-.98,0-.735.184-.858,1.532-.858.98,0,1.286,0,1.286.8v.185H238.4v-.185c0-1.9-1.165-1.96-2.635-1.96-1.716,0-2.941.061-2.941,2.022,0,2.084,1.225,2.023,2.758,2.145,1.041.061,1.592-.122,1.592.919,0,.8-.182,1.041-1.408,1.041s-1.593-.061-1.593-.858v-.366Z" transform="translate(-220.075 -243.411)" fill="#1a1818"/>
      <path id="Path_4" data-name="Path 4" d="M269.07,243.729h-1.347v7.108h1.347Z" transform="translate(-248.299 -243.668)" fill="#1a1818"/>
      <path id="Path_5" data-name="Path 5" d="M282.894,246.842v1.042h1.777v.244c0,1.348-.367,1.348-1.654,1.348-1.532,0-1.777-.122-1.777-1.593v-1.655c0-1.409.184-1.655,1.777-1.655,1.164,0,1.654,0,1.654,1.042h1.41c0-2.267-1.348-2.206-3.063-2.206-2.205,0-3.125.429-3.125,2.819v1.655c0,2.389.857,2.758,3.125,2.758,2.513,0,3.063-.43,3.063-2.513v-1.286Z" transform="translate(-258.139 -243.41)" fill="#1a1818"/>
      <path id="Path_6" data-name="Path 6" d="M322.684,249.673h0l-3.063-5.944h-2.268v7.108H318.7l-.061-5.943h0l3.064,5.943h2.268v-7.108h-1.41Z" transform="translate(-288.431 -243.668)" fill="#1a1818"/>
      <path id="Path_7" data-name="Path 7" d="M420.534,247.774h2.144c.8,0,.919.244.919.98,0,.858-.367.919-1.164.919h-1.9Zm2.329,3.063c1.47,0,2.144-.368,2.144-1.961,0-.919-.185-1.531-1.226-1.654v-.062c.859-.183,1.041-.736,1.041-1.533,0-1.592-.673-1.9-2.082-1.9h-3.553v7.108Zm-2.329-5.943h1.961c.674,0,.98.061.98.857,0,.736-.183.981-.98.981h-1.961Z" transform="translate(-370.779 -243.668)" fill="#1a1818"/>
      <path id="Path_8" data-name="Path 8" d="M459.262,243.729v5.086c0,.736-.308.919-1.594.919s-1.592-.183-1.592-.919v-5.086h-1.348v5.086c0,1.961,1.287,2.084,2.941,2.084,1.716,0,3-.123,3-2.084v-5.086Z" transform="translate(-399.518 -243.668)" fill="#1a1818"/>
      <path id="Path_9" data-name="Path 9" d="M493.542,243.729h-1.348v7.108h1.348Z" transform="translate(-429.815 -243.668)" fill="#1a1818"/>
      <path id="Path_10" data-name="Path 10" d="M507.31,243.729h-1.347v7.108h4.656v-1.164H507.31Z" transform="translate(-440.95 -243.668)" fill="#1a1818"/>
      <path id="Path_11" data-name="Path 11" d="M533.5,250.837h3.615c2.206,0,2.574-1.286,2.574-2.758v-1.654c0-1.96-.8-2.7-2.756-2.7H533.5Zm1.409-1.164v-4.779h2.023c1.04,0,1.409.305,1.409,1.531v1.654c0,.8-.307,1.594-1.227,1.594Z" transform="translate(-463.215 -243.668)" fill="#1a1818"/>
      <path id="Path_12" data-name="Path 12" d="M635.452,243.729h-1.409v7.108h1.409Z" transform="translate(-544.521 -243.668)" fill="#1a1818"/>
      <path id="Path_13" data-name="Path 13" d="M653.142,249.673h0l-3.064-5.944h-2.267v7.108h1.348l-.122-5.943h.062l3.063,5.943h2.267v-7.108H653.02Z" transform="translate(-555.654 -243.668)" fill="#1a1818"/>
      <path id="Path_14" data-name="Path 14" d="M687.2,248.314v.366c0,2.022,1.409,1.962,2.941,1.962,1.839,0,2.818-.123,2.818-2.145,0-1.838-.612-1.96-2.818-2.084-1.348-.061-1.532-.123-1.532-.98,0-.735.184-.858,1.532-.858.981,0,1.286,0,1.286.8v.185h1.41v-.185c0-1.9-1.226-1.96-2.7-1.96-1.655,0-2.88.061-2.88,2.022,0,2.084,1.164,2.023,2.7,2.145,1.1.061,1.654-.122,1.654.919,0,.8-.184,1.041-1.47,1.041-1.227,0-1.594-.061-1.594-.858v-.366Z" transform="translate(-587.506 -243.411)" fill="#1a1818"/>
      <path id="Path_15" data-name="Path 15" d="M722.394,244.894h2.083v-1.165H718.9v1.165h2.083v5.943h1.41Z" transform="translate(-613.141 -243.668)" fill="#1a1818"/>
      <path id="Path_16" data-name="Path 16" d="M749.739,249.49l.491,1.347h1.409l-2.451-7.108h-1.961l-2.39,7.108h1.409l.428-1.347Zm-.245-.981h-2.511l1.225-3.739h.061Z" transform="translate(-634.113 -243.668)" fill="#1a1818"/>
      <path id="Path_17" data-name="Path 17" d="M784.67,243.729h-1.41v7.108h4.718v-1.164H784.67Z" transform="translate(-665.184 -243.668)" fill="#1a1818"/>
      <path id="Path_18" data-name="Path 18" d="M812.787,243.729h-1.348v7.108H816.1v-1.164h-3.309Z" transform="translate(-687.971 -243.668)" fill="#1a1818"/>
      <path id="Path_19" data-name="Path 19" d="M376.558,256.962h-5.086v-3.309h5.086Z" transform="translate(-332.194 -251.693)" fill="#d9001b"/>
      <path id="Path_20" data-name="Path 20" d="M590.14,256.962h-5.086v-3.309h5.086Z" transform="translate(-504.906 -251.693)" fill="#d9001b"/>
    </g>
    <path id="Path_39" data-name="Path 39" d="M951.715,191.788h-2.242v1.654h2.242V195.1h-5.183v-1.655h1.287v-3.307h3.9Z" transform="translate(-769.715 -158.64)" fill="#1a1818"/>
    <path id="Path_41" data-name="Path 41" d="M750.089,198.777v3.308H705.6v-3.308Z" transform="translate(-574.89 -165.626)" fill="#d9001b"/>
  </g>
</svg>
