<svg xmlns="http://www.w3.org/2000/svg" width="52" height="52" viewBox="0 0 52 52">
  <g id="_01" data-name="01" transform="translate(-4 -4)">
    <path id="Path_29066" data-name="Path 29066" d="M30,43c14.11,0,25.3-11.926,25.774-12.434a.824.824,0,0,0,0-1.133C55.3,28.926,44.11,17,30,17S4.7,28.926,4.226,29.434a.824.824,0,0,0,0,1.133C4.7,31.074,15.89,43,30,43ZM17.929,30c0-6.212,5.415-11.267,12.071-11.267S42.071,23.788,42.071,30,36.656,41.267,30,41.267,17.929,36.212,17.929,30Zm35.881,0a44.956,44.956,0,0,1-14.1,9.3,12.364,12.364,0,0,0,0-18.609A44.963,44.963,0,0,1,53.809,30ZM20.294,20.7a12.363,12.363,0,0,0,0,18.609A44.963,44.963,0,0,1,6.19,30,44.963,44.963,0,0,1,20.294,20.7Z" fill="#1a1818"/>
    <path id="Path_29067" data-name="Path 29067" d="M30,22.571A7.437,7.437,0,0,0,22.571,30h1.857A5.577,5.577,0,0,1,30,24.429Zm0,13v1.857A7.437,7.437,0,0,0,37.429,30H35.571A5.577,5.577,0,0,1,30,35.571Zm-14.115-21.6-1.228-1.393c-.493.436-.971.894-1.423,1.366l1.341,1.284C14.99,14.8,15.431,14.374,15.885,13.974ZM8.836,20.456l1.692.764c.249-.55.523-1.095.816-1.621l-1.621-.905C9.4,19.266,9.105,19.859,8.836,20.456ZM44.13,13.987c.453.4.893.823,1.308,1.258l1.343-1.283c-.451-.473-.93-.932-1.422-1.367ZM27.3,8.814c.6-.076,1.2-.127,1.809-.152l-.077-1.855c-.657.027-1.318.083-1.966.164Zm10.69,1.372c.559.226,1.114.478,1.652.75l.839-1.657c-.583-.3-1.188-.57-1.8-.815ZM23.748,9.572c.578-.176,1.17-.33,1.758-.456L25.116,7.3c-.639.136-1.281.3-1.909.495ZM13.376,16.594,11.93,15.428c-.414.513-.809,1.047-1.173,1.587l1.54,1.039C12.632,17.558,13,17.067,13.376,16.594Zm22.9-7.014L36.819,7.8c-.626-.192-1.268-.36-1.91-.5l-.391,1.815C35.107,9.248,35.7,9.4,36.274,9.58Zm-3.545-.764.235-1.842c-.646-.082-1.307-.138-1.966-.166l-.079,1.855C31.526,8.687,32.135,8.739,32.729,8.816ZM51.174,20.477c-.268-.6-.566-1.188-.887-1.762l-1.622.9c.294.529.569,1.075.815,1.622ZM17.3,12.832c.483-.358.987-.7,1.5-1.019l-.976-1.58c-.559.345-1.109.718-1.633,1.107Zm31.957,4.2c-.367-.543-.76-1.077-1.173-1.587L46.635,16.61c.379.47.741.961,1.078,1.461ZM42.72,12.843l1.107-1.49c-.525-.39-1.074-.763-1.631-1.108l-.978,1.579C41.731,12.142,42.236,12.484,42.72,12.843ZM20.382,10.926c.541-.273,1.1-.525,1.655-.749l-.694-1.722c-.6.243-1.209.517-1.8.813ZM32.7,51.186c-.6.076-1.2.127-1.809.152l.077,1.855c.657-.027,1.318-.083,1.966-.164Zm-5.434,0-.235,1.842c.646.082,1.307.138,1.966.166l.079-1.855C28.474,51.313,27.865,51.261,27.271,51.184Zm-1.789-.306c-.59-.127-1.18-.281-1.756-.458L23.181,52.2c.626.192,1.268.36,1.91.5Zm10.77-.45c-.579.176-1.17.33-1.758.456l.39,1.815c.639-.136,1.281-.3,1.909-.495ZM15.87,46.013c-.453-.4-.893-.823-1.308-1.258l-1.343,1.283c.451.473.93.932,1.422,1.367Zm-7.044-6.49c.268.6.566,1.188.887,1.762l1.622-.9c-.294-.529-.569-1.075-.815-1.622Zm4.538,3.867c-.379-.47-.741-.961-1.078-1.461l-1.54,1.039c.367.543.76,1.077,1.173,1.587Zm4.441,6.365.978-1.579c-.514-.318-1.019-.66-1.5-1.02l-1.107,1.49C16.7,49.038,17.248,49.411,17.805,49.755Zm3.516,1.782.695-1.722c-.559-.226-1.114-.478-1.652-.75l-.838,1.657C20.109,51.017,20.713,51.292,21.321,51.537ZM42.7,47.168c-.483.358-.987.7-1.5,1.019l.976,1.58c.559-.345,1.109-.718,1.633-1.107Zm-4.046,4.377c.6-.243,1.209-.517,1.8-.813l-.836-1.658c-.541.273-1.1.525-1.655.749Zm5.458-5.519,1.229,1.393c.493-.436.971-.894,1.423-1.366l-1.341-1.284C45.01,45.2,44.569,45.626,44.115,46.026Zm7.049-6.482-1.692-.764c-.249.55-.523,1.095-.816,1.621l1.621.905C50.6,40.734,50.895,40.141,51.164,39.544Zm-4.54,3.862,1.446,1.166c.414-.513.809-1.047,1.173-1.587L47.7,41.946C47.368,42.442,47,42.933,46.624,43.406ZM5.857,5.857H9.571V4H4.929A.929.929,0,0,0,4,4.929V9.571H5.857ZM56,9.571V4.929A.929.929,0,0,0,55.071,4H50.429V5.857h3.714V9.571ZM4.929,56H9.571V54.143H5.857V50.429H4v4.643A.929.929,0,0,0,4.929,56ZM56,50.429H54.143v3.714H50.429V56h4.643A.929.929,0,0,0,56,55.071Z" fill="#1a1818"/>
  </g>
</svg>
