<svg xmlns="http://www.w3.org/2000/svg" width="54.105" height="53.729" viewBox="0 0 54.105 53.729">
  <g id="Layer_2" data-name="Layer 2" transform="translate(-3.742 -2.556)">
    <path id="Path_29077" data-name="Path 29077" d="M55.351,43.839,53.391,24.3a1.026,1.026,0,0,0-.934-.837H45.174a1.026,1.026,0,0,0-.934.837L42.373,43H40.506L38.545,14.065a.932.932,0,0,0-.934-.837H27.341a.932.932,0,0,0-.934.837l-1.4,20.656-5.975-4.559a.842.842,0,0,0-1.12,0L4.373,40.4A.836.836,0,0,0,4,41.141V55.1a.839.839,0,0,0,.934.93H54.418a.839.839,0,0,0,.934-.93V43.932ZM46.015,25.324h5.6L53.391,43h-9.15ZM28.182,15.089h8.59L38.639,43h-5.7V41.141a.836.836,0,0,0-.373-.744l-5.789-4.373ZM5.867,41.606l12.6-9.49,12.6,9.49V54.167H23.607V45.793a.839.839,0,0,0-.934-.93H15.2a.839.839,0,0,0-.934.93v8.374h-8.4Zm10.27,12.561V46.724h5.6v7.443Zm37.347,0H32.943v-9.3H53.484ZM32.757,5.319A3.263,3.263,0,0,0,34.344,3.83L32.757,2.9a1.958,1.958,0,0,1-.934.837,3.356,3.356,0,0,0-1.587,1.489,4.083,4.083,0,0,0-.56,2.233,1.948,1.948,0,0,1-.187,1.21,1.773,1.773,0,0,1-.934.744,4.289,4.289,0,0,0-1.681,1.582l1.681.93a1.771,1.771,0,0,1,.84-.837A3.451,3.451,0,0,0,31.076,9.6a3.155,3.155,0,0,0,.467-2.233,1.949,1.949,0,0,1,.28-1.21,2.052,2.052,0,0,1,.934-.837Zm7.376.558A4.289,4.289,0,0,0,41.813,4.3l-1.681-.93a1.771,1.771,0,0,1-.84.837,3.451,3.451,0,0,0-1.681,1.489,3.8,3.8,0,0,0-.467,2.233,2.041,2.041,0,0,1-.28,1.21,1.493,1.493,0,0,1-.934.744,4.194,4.194,0,0,0-1.587,1.582l1.587.93a1.958,1.958,0,0,1,.934-.837,3.356,3.356,0,0,0,1.587-1.489,4.083,4.083,0,0,0,.56-2.233,1.948,1.948,0,0,1,.187-1.21,1.773,1.773,0,0,1,.934-.744Z" stroke="#1a1818" stroke-width="0.5"/>
    <path id="Path_29078" data-name="Path 29078" d="M52.912,16.134a3.007,3.007,0,0,0,1.46-1.375l-1.46-.859a1.8,1.8,0,0,1-.859.773,3.093,3.093,0,0,0-1.46,1.375,3.78,3.78,0,0,0-.515,2.062,1.8,1.8,0,0,1-.172,1.117,1.632,1.632,0,0,1-.859.687,3.952,3.952,0,0,0-1.546,1.46l1.546.859a1.632,1.632,0,0,1,.773-.773,3.179,3.179,0,0,0,1.546-1.375,2.921,2.921,0,0,0,.43-2.062,1.8,1.8,0,0,1,.258-1.117,1.89,1.89,0,0,1,.859-.773Zm4.3-1.031a3.179,3.179,0,0,0-1.546,1.375,3.522,3.522,0,0,0-.43,2.062,1.89,1.89,0,0,1-.258,1.117,1.375,1.375,0,0,1-.859.687,3.866,3.866,0,0,0-1.46,1.46l1.46.859a1.8,1.8,0,0,1,.859-.773,3.093,3.093,0,0,0,1.46-1.375,3.78,3.78,0,0,0,.515-2.062,1.8,1.8,0,0,1,.172-1.117,1.632,1.632,0,0,1,.859-.687,3.952,3.952,0,0,0,1.546-1.46l-1.546-.859a1.632,1.632,0,0,1-.773.773Z" transform="translate(-2.028 -0.595)" stroke="#1a1818" stroke-width="0.5"/>
  </g>
</svg>
