<svg xmlns="http://www.w3.org/2000/svg" width="48.001" height="43.638" viewBox="0 0 48.001 43.638">
  <path id="_02" data-name="02" d="M35.91,10.728V33.156l3.273,3.3,3.273-3.3V10.728Zm0-2.182h6.546V4.214H35.91Zm8.728,4.364v20.7a1.091,1.091,0,0,1-.317.769l-4.364,4.4a1.091,1.091,0,0,1-1.548,0l-4.364-4.4a1.091,1.091,0,0,1-.317-.769V28.183H32.637a3.273,3.273,0,0,1-3.273-3.273V18.364a3.273,3.273,0,0,1,3.273-3.273h1.091V12.909H11.909V29.274a1.091,1.091,0,0,1-1.091,1.091H9.728a6.546,6.546,0,1,0,0,13.091H46.82V12.909Zm0-2.182H47.91A1.091,1.091,0,0,1,49,11.818V44.547a1.091,1.091,0,0,1-1.091,1.091H9.728A8.728,8.728,0,0,1,1,36.91V11.818A9.818,9.818,0,0,1,10.818,2a1.091,1.091,0,0,1,1.091,1.091v7.637H33.728v-7.6a1.091,1.091,0,0,1,1.091-1.091h8.728a1.091,1.091,0,0,1,1.091,1.091ZM33.728,17.273H32.637a1.091,1.091,0,0,0-1.091,1.091V24.91A1.091,1.091,0,0,0,32.637,26h1.091ZM3.182,31.137a8.706,8.706,0,0,1,6.546-2.955V4.259a7.638,7.638,0,0,0-6.546,7.559V31.137ZM17.364,15.091H23.91a3.273,3.273,0,0,1,3.273,3.273V24.91a3.273,3.273,0,0,1-3.273,3.273H17.364a3.273,3.273,0,0,1-3.273-3.273V18.364A3.273,3.273,0,0,1,17.364,15.091Zm0,2.182a1.091,1.091,0,0,0-1.091,1.091V24.91A1.091,1.091,0,0,0,17.364,26H23.91A1.091,1.091,0,0,0,25,24.91V18.364a1.091,1.091,0,0,0-1.091-1.091ZM15.182,34.728a1.091,1.091,0,1,1,0-2.182H30.455a1.091,1.091,0,1,1,0,2.182Zm0,4.364a1.091,1.091,0,1,1,0-2.182H32.637a1.091,1.091,0,1,1,0,2.182Z" transform="translate(-1 -2)" fill="#1a1818"/>
</svg>
