<svg xmlns="http://www.w3.org/2000/svg" width="46.18" height="46.18" viewBox="0 0 46.18 46.18">
  <path id="setting_1_" data-name="setting (1)" d="M25.34,16.925a8.415,8.415,0,1,0,8.415,8.415A8.415,8.415,0,0,0,25.34,16.925Zm0,14.425a6.011,6.011,0,1,1,6.011-6.011A6.01,6.01,0,0,1,25.34,31.351ZM47.359,20.593l-4.536-1.512a1.216,1.216,0,0,1-.156-.065,1.2,1.2,0,0,1-.539-1.612l2.139-4.275a1.2,1.2,0,0,0-.225-1.388l-5.1-5.1a1.207,1.207,0,0,0-1.388-.225L33.276,8.553a1.225,1.225,0,0,1-.156.065,1.2,1.2,0,0,1-1.52-.76L30.088,3.322A1.2,1.2,0,0,0,28.947,2.5H21.734a1.2,1.2,0,0,0-1.14.822L19.082,7.858a1.185,1.185,0,0,1-.681.73,1.169,1.169,0,0,1-1-.035L13.128,6.414a1.2,1.2,0,0,0-1.388.225l-5.1,5.1a1.2,1.2,0,0,0-.225,1.388L8.553,17.4a1.2,1.2,0,0,1-.695,1.676L3.322,20.593A1.2,1.2,0,0,0,2.5,21.734v7.213a1.2,1.2,0,0,0,.822,1.141L7.857,31.6a1.2,1.2,0,0,1,.7,1.676L6.414,37.552a1.2,1.2,0,0,0,.225,1.388l5.1,5.1a1.2,1.2,0,0,0,1.388.225L17.4,42.128a1.153,1.153,0,0,1,1-.035,1.185,1.185,0,0,1,.681.73l1.512,4.536a1.2,1.2,0,0,0,1.14.822h7.213a1.2,1.2,0,0,0,1.141-.822L31.6,42.822a1.224,1.224,0,0,1,.065-.156,1.2,1.2,0,0,1,1.612-.539l4.278,2.139a1.211,1.211,0,0,0,1.388-.225l5.1-5.1a1.2,1.2,0,0,0,.225-1.388l-2.139-4.275a1.2,1.2,0,0,1-.035-1,1.181,1.181,0,0,1,.73-.679l4.536-1.512a1.2,1.2,0,0,0,.822-1.141V21.734A1.2,1.2,0,0,0,47.359,20.593ZM45.776,28.08l-3.714,1.237a3.606,3.606,0,0,0-2.085,5.034l1.752,3.5-3.874,3.876-3.5-1.752a3.6,3.6,0,0,0-5.034,2.085L28.08,45.776H22.6l-1.239-3.714a3.608,3.608,0,0,0-5.034-2.085l-3.5,1.752L8.952,37.852l1.752-3.5a3.608,3.608,0,0,0-2.086-5.034L4.9,28.08V22.6l3.714-1.237A3.609,3.609,0,0,0,10.7,16.329l-1.752-3.5,3.875-3.876,3.5,1.752a3.607,3.607,0,0,0,5.034-2.085L22.6,4.9h5.48l1.237,3.714A3.6,3.6,0,0,0,34.352,10.7l3.5-1.752,3.874,3.877-1.752,3.5a3.6,3.6,0,0,0,2.085,5.034L45.776,22.6Z" transform="translate(-2.25 -2.25)" stroke="#000" stroke-width="0.5"/>
</svg>
