<svg xmlns="http://www.w3.org/2000/svg" width="49.656" height="49.654" viewBox="0 0 49.656 49.654">
  <g id="_04" data-name="04" transform="translate(-1.226 -0.82)">
    <path id="Path_29080" data-name="Path 29080" d="M19.736,21.744l1.97-2.047-7.019-7.017-.233-.327-3.3-6.82L5.1,2.6,2.6,5.1,5.582,11.2l6.767,3.258.329.233Zm12.74,5.017-5.767,5.664L41.631,47.348a1.2,1.2,0,0,0,1.7,0l4.015-4.018a1.2,1.2,0,0,0,0-1.7L32.476,26.762Z" transform="translate(0.44 1.009)" fill="none" stroke="#1a1818" stroke-width="2" fill-rule="evenodd"/>
    <path id="Path_29081" data-name="Path 29081" d="M2.634,41.949a10.047,10.047,0,0,1,12.3-12.3L30.061,14.524a10.04,10.04,0,0,1,12.3-12.3l-4.3,4.3L37.9,13.589l7-.216,4.438-4.436A10.035,10.035,0,0,1,37.159,21.62L22.028,36.751A10.035,10.035,0,0,1,9.345,48.934L13.783,44.5l.216-7-7.065.156-4.3,4.3Z" transform="translate(0 0)" fill="none" stroke="#1a1818" stroke-linecap="round" stroke-linejoin="round" stroke-width="2" fill-rule="evenodd"/>
  </g>
</svg>
