<svg xmlns="http://www.w3.org/2000/svg" width="38.155" height="51.363" viewBox="0 0 38.155 51.363">
  <g id="_05" data-name="05" transform="translate(-14 -5)">
    <path id="Path_29085" data-name="Path 29085" d="M14,16.465V53.7a2.663,2.663,0,0,0,2.66,2.66H49.5a2.663,2.663,0,0,0,2.66-2.66V16.465a2.663,2.663,0,0,0-2.66-2.66H45.4a7.325,7.325,0,0,0,.148-1.468,1.468,1.468,0,0,0-1.468-1.468H38.948a5.87,5.87,0,1,0-11.74,0H22.071A1.468,1.468,0,0,0,20.6,12.338a7.325,7.325,0,0,0,.148,1.468H16.66A2.663,2.663,0,0,0,14,16.465Zm14.675-2.66a1.468,1.468,0,0,0,1.468-1.468V10.87a2.935,2.935,0,0,1,5.87,0v1.468a1.468,1.468,0,0,0,1.468,1.468h4.885a4.41,4.41,0,0,1-4.151,2.935H27.941a4.41,4.41,0,0,1-4.151-2.935ZM16.935,16.74h5.151a7.321,7.321,0,0,0,5.855,2.935H38.214a7.321,7.321,0,0,0,5.855-2.935H49.22V53.428H16.935Z"/>
    <path id="Path_29086" data-name="Path 29086" d="M46.48,31H24.468a1.468,1.468,0,1,0,0,2.935H46.48a1.468,1.468,0,1,0,0-2.935Zm0,7.338H24.468a1.468,1.468,0,1,0,0,2.935H46.48a1.468,1.468,0,1,0,0-2.935Zm0,7.338H24.468a1.468,1.468,0,1,0,0,2.935H46.48a1.468,1.468,0,1,0,0-2.935Zm0,7.338H24.468a1.468,1.468,0,1,0,0,2.935H46.48a1.468,1.468,0,1,0,0-2.935Z" transform="translate(-2.396 -6.922)"/>
  </g>
</svg>
