<svg xmlns="http://www.w3.org/2000/svg" width="41.255" height="49.299" viewBox="0 0 41.255 49.299">
  <g id="_06" data-name="06" transform="translate(-97.4 -16.365)">
    <path id="Path_29082" data-name="Path 29082" d="M132.617,388.6a10.152,10.152,0,0,0,1.029-.02,5.665,5.665,0,0,0,2.232-.661,5.434,5.434,0,0,0,2.58-3.316,13.331,13.331,0,0,0,.179-3.331v-8.139a5.381,5.381,0,0,0-4.191-5.33,7.089,7.089,0,0,0-3.386.1,5.418,5.418,0,0,0-3.217,2.7,5.809,5.809,0,0,0-.592,2.6v9.76a5.7,5.7,0,0,0,.308,2.043,5.4,5.4,0,0,0,2.8,3.078,5.593,5.593,0,0,0,2.257.517,1.492,1.492,0,1,0,0-2.983,4.045,4.045,0,0,1-.547-.04c.134.02.264.035.4.055a3.99,3.99,0,0,1-.96-.268l.358.149a4.276,4.276,0,0,1-.631-.338.923.923,0,0,1-.159-.114s.328.273.124.094c-.089-.08-.179-.154-.264-.239s-.149-.154-.219-.239-.164-.273.07.1c-.035-.055-.075-.1-.114-.159a3.854,3.854,0,0,1-.338-.631l.149.358a3.989,3.989,0,0,1-.268-.96c.02.134.035.263.055.4a11.06,11.06,0,0,1-.04-1.407v-8.224a12.183,12.183,0,0,1,.04-1.651c-.02.134-.035.264-.055.4a3.988,3.988,0,0,1,.268-.96l-.149.358a4.276,4.276,0,0,1,.338-.631.924.924,0,0,1,.114-.159s-.273.328-.094.124c.08-.09.154-.179.239-.264s.154-.149.239-.219.273-.164-.1.07c.055-.035.1-.075.159-.114a3.853,3.853,0,0,1,.631-.338l-.358.149a3.988,3.988,0,0,1,.96-.268c-.134.02-.264.035-.4.055a6.834,6.834,0,0,1,1.745,0c-.134-.02-.264-.035-.4-.055a3.988,3.988,0,0,1,.96.268l-.358-.149a4.272,4.272,0,0,1,.631.338.924.924,0,0,1,.159.114s-.328-.273-.124-.094c.089.08.179.154.264.239s.149.154.219.239.164.273-.07-.1c.035.055.075.1.114.159a3.856,3.856,0,0,1,.338.631l-.149-.358a3.987,3.987,0,0,1,.268.96c-.02-.134-.035-.263-.055-.4a11.06,11.06,0,0,1,.04,1.407v8.224a12.185,12.185,0,0,1-.04,1.651c.02-.134.035-.264.055-.4a3.988,3.988,0,0,1-.268.96l.149-.358a4.274,4.274,0,0,1-.338.631.925.925,0,0,1-.114.159s.273-.328.094-.124c-.08.089-.154.179-.239.264s-.154.149-.239.219-.273.164.1-.07c-.055.035-.1.075-.159.114a3.855,3.855,0,0,1-.631.338l.358-.149a3.989,3.989,0,0,1-.96.268c.134-.02.264-.035.4-.055a8.75,8.75,0,0,1-1.2.04,1.492,1.492,0,0,0,0,2.983Zm-29.852,0a10.152,10.152,0,0,0,1.029-.02,5.665,5.665,0,0,0,2.232-.661,5.434,5.434,0,0,0,2.58-3.316,13.331,13.331,0,0,0,.179-3.331v-8.139a5.381,5.381,0,0,0-4.191-5.33,7.089,7.089,0,0,0-3.386.1,5.418,5.418,0,0,0-3.217,2.7,5.809,5.809,0,0,0-.592,2.6v9.76a5.7,5.7,0,0,0,.308,2.043,5.4,5.4,0,0,0,2.8,3.078,5.593,5.593,0,0,0,2.257.517,1.492,1.492,0,1,0,0-2.983,4.045,4.045,0,0,1-.547-.04c.134.02.264.035.4.055a3.989,3.989,0,0,1-.96-.268l.358.149a4.277,4.277,0,0,1-.631-.338.923.923,0,0,1-.159-.114s.328.273.124.094c-.089-.08-.179-.154-.264-.239s-.149-.154-.219-.239-.164-.273.07.1c-.035-.055-.075-.1-.114-.159a3.854,3.854,0,0,1-.338-.631l.149.358a3.989,3.989,0,0,1-.268-.96c.02.134.035.263.055.4a11.06,11.06,0,0,1-.04-1.407v-8.224a12.186,12.186,0,0,1,.04-1.651c-.02.134-.035.264-.055.4a3.988,3.988,0,0,1,.268-.96l-.149.358a4.276,4.276,0,0,1,.338-.631.924.924,0,0,1,.114-.159s-.273.328-.094.124c.08-.09.154-.179.239-.264s.154-.149.239-.219.273-.164-.1.07c.055-.035.1-.075.159-.114a3.854,3.854,0,0,1,.631-.338l-.358.149a3.988,3.988,0,0,1,.96-.268c-.134.02-.264.035-.4.055a6.834,6.834,0,0,1,1.745,0c-.134-.02-.264-.035-.4-.055a3.988,3.988,0,0,1,.96.268l-.358-.149a4.273,4.273,0,0,1,.631.338.924.924,0,0,1,.159.114s-.328-.273-.124-.094c.089.08.179.154.264.239s.149.154.219.239.164.273-.07-.1c.035.055.075.1.114.159a3.855,3.855,0,0,1,.338.631l-.149-.358a3.987,3.987,0,0,1,.268.96c-.02-.134-.035-.263-.055-.4a11.06,11.06,0,0,1,.04,1.407v8.224a12.184,12.184,0,0,1-.04,1.651c.02-.134.035-.264.055-.4a3.988,3.988,0,0,1-.268.96l.149-.358a4.273,4.273,0,0,1-.338.631.925.925,0,0,1-.114.159s.273-.328.094-.124c-.08.089-.154.179-.239.264s-.154.149-.239.219-.273.164.1-.07c-.055.035-.1.075-.159.114a3.856,3.856,0,0,1-.631.338l.358-.149a3.989,3.989,0,0,1-.96.268c.134-.02.264-.035.4-.055a8.75,8.75,0,0,1-1.2.04,1.492,1.492,0,0,0,0,2.983Z" transform="translate(0 -333.816)"/>
    <path id="Path_29083" data-name="Path 29083" d="M100.378,49.093V37.622a23.937,23.937,0,0,1,.174-3.212c-.02.134-.035.264-.055.4a19.1,19.1,0,0,1,1.332-4.853l-.149.358a19.481,19.481,0,0,1,1.332-2.58c.249-.4.507-.791.786-1.173.07-.1.144-.194.214-.288.025-.035.055-.07.08-.1.159-.214-.239.3-.075.094.149-.189.3-.378.457-.557a19.251,19.251,0,0,1,1.994-2.034c.174-.149.348-.3.527-.447.085-.07.169-.139.254-.2s.3-.224-.094.07c.055-.04.1-.08.159-.119.383-.288.781-.567,1.188-.825a19.355,19.355,0,0,1,2.859-1.507l-.358.149a19.1,19.1,0,0,1,4.853-1.332c-.134.02-.264.035-.4.055a19.16,19.16,0,0,1,5.116,0c-.134-.02-.264-.035-.4-.055a19.1,19.1,0,0,1,4.853,1.332l-.358-.149a19.48,19.48,0,0,1,2.58,1.332c.4.249.791.507,1.173.786.1.07.194.144.288.214.035.025.07.055.1.08.214.159-.3-.239-.094-.075.189.149.378.3.557.457a19.252,19.252,0,0,1,2.034,1.994c.149.174.3.348.447.527.07.085.139.169.2.254s.224.3-.07-.094c.04.055.08.1.119.159.288.383.567.781.825,1.188a19.356,19.356,0,0,1,1.507,2.859l-.149-.358a19.1,19.1,0,0,1,1.332,4.853c-.02-.134-.035-.264-.055-.4a25.106,25.106,0,0,1,.174,3.346V50.34a22.25,22.25,0,0,1-.085,2.879c.02-.134.035-.264.055-.4A9.418,9.418,0,0,1,135,55.084l.149-.358a9.254,9.254,0,0,1-.84,1.561c-.08.119-.164.234-.244.348-.184.259.219-.268.055-.07-.04.05-.08.1-.124.154-.189.229-.383.443-.592.651s-.428.408-.651.592c-.05.04-.1.085-.154.124-.2.164.293-.219.094-.075-.124.089-.249.179-.373.264a9.254,9.254,0,0,1-1.561.84l.358-.149a9.355,9.355,0,0,1-2.262.617c.134-.02.264-.035.4-.055a18.038,18.038,0,0,1-2.431.085H123.03a1.492,1.492,0,0,0,0,2.983H126.8c.472,0,.95.01,1.422,0a10.417,10.417,0,0,0,3.689-.751,10.754,10.754,0,0,0,5.574-5.076,11.27,11.27,0,0,0,1.154-5.1V36.981a20.37,20.37,0,0,0-1.2-6.916,21.178,21.178,0,0,0-3.684-6.374,20.669,20.669,0,0,0-5.355-4.52,20.327,20.327,0,0,0-6.717-2.486,21.141,21.141,0,0,0-7.627.055,20.272,20.272,0,0,0-6.643,2.566,20.512,20.512,0,0,0-5.3,4.584A21.225,21.225,0,0,0,98.5,30.343a20.578,20.578,0,0,0-1.1,6.648v12.1a1.489,1.489,0,1,0,2.978,0Z"/>
    <path id="Path_29084" data-name="Path 29084" d="M401.529,828.964a2.769,2.769,0,0,1-.03.408c.02-.134.035-.263.055-.4a3.426,3.426,0,0,1-.209.766l.149-.358a3.505,3.505,0,0,1-.259.487.7.7,0,0,1-.089.134c-.005,0,.249-.3.114-.149-.065.075-.129.144-.194.214s-.124.119-.189.174c-.094.084-.229.114.124-.095-.035.02-.07.05-.1.075a3.454,3.454,0,0,1-.517.278l.358-.149a3.425,3.425,0,0,1-.766.209c.134-.02.263-.035.4-.055a16.645,16.645,0,0,1-2.053.03,18.471,18.471,0,0,1-2.1-.025c.134.02.263.035.4.055a3.6,3.6,0,0,1-.756-.2l.358.149a3.148,3.148,0,0,1-.542-.288c-.139-.094-.164-.2.055.05-.065-.075-.154-.134-.224-.2a1.079,1.079,0,0,1-.2-.224c.045.06.094.119.139.184-.03-.04-.06-.085-.089-.124a3.137,3.137,0,0,1-.288-.542l.149.358a3.258,3.258,0,0,1-.2-.756c.02.134.035.263.055.4a3.4,3.4,0,0,1,0-.81c-.02.134-.035.264-.055.4a3.424,3.424,0,0,1,.209-.766l-.149.358a3.512,3.512,0,0,1,.259-.487.7.7,0,0,1,.089-.134s-.249.3-.114.149c.065-.075.129-.144.194-.214s.124-.119.189-.174c.094-.085.229-.114-.124.094.035-.02.07-.05.1-.075a3.46,3.46,0,0,1,.517-.278l-.358.149a3.425,3.425,0,0,1,.766-.209c-.134.02-.263.035-.4.055a16.633,16.633,0,0,1,2.053-.03,18.471,18.471,0,0,1,2.1.025c-.134-.02-.263-.035-.4-.055a3.6,3.6,0,0,1,.756.2l-.358-.149a3.14,3.14,0,0,1,.542.288c.139.094.164.2-.055-.05.065.075.154.134.224.2a1.08,1.08,0,0,1,.2.224c-.045-.06-.094-.119-.139-.184.03.04.06.085.09.124a3.145,3.145,0,0,1,.288.542l-.149-.358a3.258,3.258,0,0,1,.2.756c-.02-.134-.035-.263-.055-.4a2.753,2.753,0,0,1,.03.4,1.492,1.492,0,0,0,2.983,0A4.6,4.6,0,0,0,402,824.892a4.831,4.831,0,0,0-2.073-.492H397.07a5.354,5.354,0,0,0-2.685.582,4.627,4.627,0,0,0-2.312,3.57,4.572,4.572,0,0,0,2.083,4.251,5.049,5.049,0,0,0,2.894.721h2.894a4.764,4.764,0,0,0,2.178-.552,4.619,4.619,0,0,0,2.4-4.012,1.506,1.506,0,0,0-1.492-1.492A1.531,1.531,0,0,0,401.529,828.964Z" transform="translate(-279.995 -767.859)"/>
  </g>
</svg>
